<?xml version="1.0" encoding="utf-8"?>
<!-- Generator: Adobe Illustrator 23.0.6, SVG Export Plug-In . SVG Version: 6.00 Build 0)  -->
<svg version="1.1" id="Layer_1" xmlns="http://www.w3.org/2000/svg" xmlns:xlink="http://www.w3.org/1999/xlink" x="0px" y="0px"
	 viewBox="0 0 500 500" style="enable-background:new 0 0 500 500;" xml:space="preserve">
<style type="text/css">
	.st0{fill:#14467C;}
</style>
<path class="st0" d="M261.4,133.9c0-7.2-2.1-13-6.3-17.7c-4.6-4.8-10.6-7.2-18.3-7.2h-24.8v10.2v84.6v10.2h24.8
	c7.7,0,13.8-2.4,18.3-7.2c4.2-4.6,6.3-10.5,6.3-17.7v-10.4c0-6.7-2.3-12.4-6.8-17.2c4.5-4.8,6.8-10.5,6.8-17.2V133.9z M237.1,125
	c2.7,0,4.9,0.8,6.5,2.5c1.6,1.7,2.5,3.9,2.5,6.6v10.5c0,2.5-0.9,4.6-2.6,6.4c-1.7,1.8-3.9,2.7-6.4,2.7h-9.5V125H237.1z M246.1,188.7
	c0,2.7-0.8,4.9-2.5,6.6c-1.6,1.7-3.8,2.5-6.5,2.5h-9.5v-28.6h9.5c2.5,0,4.6,0.9,6.4,2.7c1.7,1.8,2.6,3.9,2.6,6.4V188.7z"/>
<rect x="277.9" y="163.4" class="st0" width="60.2" height="4.9"/>
<path class="st0" d="M175.2,375.2c0-9-7.3-16.3-16.3-16.3c-9,0-16.3,7.3-16.3,16.3c0,9,7.3,16.3,16.3,16.3
	C167.9,391.5,175.2,384.2,175.2,375.2"/>
<path class="st0" d="M147.6,224.3L147.6,224.3c-6.5,0-12.5,2.5-16.9,6.6c-4.4-4.1-10.4-6.6-16.9-6.6c-13.8,0-24.9,11.2-24.9,24.9
	v80.5h15.7v-79.3c0-5.1,4.1-9.2,9.2-9.2c4.3,0,7.9,3,8.9,6.9c0,0.4,0,0.7,0,1.1v80.5h0.3h15.4h0.3v-80.5c0-0.4,0-0.7,0-1.1
	c1-4,4.6-6.9,8.9-6.9c5.1,0,9.2,4.1,9.2,9.2v79.3h15.7v-80.5C172.5,235.5,161.4,224.3,147.6,224.3"/>
<path class="st0" d="M386.9,224.3L386.9,224.3c-13.8,0-24.9,11.2-24.9,24.9v80.5h15.7v-79.3c0-5.1,4.1-9.2,9.2-9.2
	c5.1,0,9.2,4.1,9.2,9.2v79.3h15.7v-80.5C411.8,235.5,400.6,224.3,386.9,224.3"/>
<path class="st0" d="M181.7,108L181.7,108c-13.8,0-24.9,11.2-24.9,24.9v80.5h15.7v-44h18.4v44h15.7v-80.5
	C206.7,119.1,195.5,108,181.7,108 M172.5,153.5V134c0-5.1,4.1-9.2,9.2-9.2c5.1,0,9.2,4.1,9.2,9.2v19.5H172.5z"/>
<path class="st0" d="M204.5,224.3L204.5,224.3c-13.8,0-24.9,11.2-24.9,24.9v35.9v44.6v35.9c0,13.8,11.2,24.9,24.9,24.9
	c13.8,0,24.9-11.2,24.9-24.9v-35.9v-44.6v-35.9C229.4,235.5,218.3,224.3,204.5,224.3 M213.7,329.8v34.8c0,5.1-4.1,9.2-9.2,9.2
	c-5.1,0-9.2-4.1-9.2-9.2v-34.8v-44.6v-34.8c0-5.1,4.1-9.2,9.2-9.2c5.1,0,9.2,4.1,9.2,9.2v34.8V329.8z"/>
<path class="st0" d="M331.7,224.3L331.7,224.3c-13.8,0-24.9,11.2-24.9,24.9v23.9v12v19.6c0,13.8,11.2,24.9,24.9,24.9
	c13.8,0,24.9-11.2,24.9-24.9v-19.6v-12v-23.9C356.6,235.5,345.4,224.3,331.7,224.3 M340.9,285.2v18.5c0,5.1-4.1,9.2-9.2,9.2
	c-5.1,0-9.2-4.1-9.2-9.2v-18.5v-12v-22.8c0-5.1,4.1-9.2,9.2-9.2c5.1,0,9.2,4.1,9.2,9.2v22.8V285.2z"/>
<polygon class="st0" points="123.1,197.7 123.1,109 107.3,109 107.3,197.7 107.3,197.7 107.3,213.4 107.3,213.4 123.1,213.4 
	152.1,213.4 152.1,197.7 "/>
<rect x="286.4" y="225.3" class="st0" width="15.7" height="104.4"/>
<polygon class="st0" points="282,225.3 265,225.3 249.2,225.3 232.2,225.3 232.2,241.1 249.2,241.1 249.2,329.8 265,329.8 
	265,241.1 282,241.1 "/>
</svg>
